# Blender v3.2.2 OBJ File: 'frame2.blend'
# www.blender.org
mtllib frame2.mtl
o Cube
v -6.849073 -0.217067 -13.185551
v -6.849073 -0.217067 12.814449
v -8.849073 0.782933 -15.185551
v -8.849073 -0.217067 -15.185551
v -8.849073 0.782933 14.814449
v -8.849073 -0.217067 14.814449
v 7.150927 -0.217067 -13.185551
v 9.150927 0.782933 -15.185551
v 9.150927 -0.217067 -15.185551
v 7.150927 -0.217067 12.814449
v 9.150927 0.782933 14.814449
v 9.150927 -0.217067 14.814449
v -6.849073 0.082933 -13.185551
v -8.249073 0.782933 -14.585550
v -6.887717 0.127369 -13.224195
v -6.918924 0.167307 -13.255402
v -6.954828 0.205781 -13.291306
v -7.007564 0.245826 -13.344041
v -7.069974 0.276161 -13.406451
v -7.135865 0.297635 -13.472342
v -7.200342 0.319619 -13.536819
v -7.258508 0.351487 -13.594985
v -7.283415 0.380623 -13.619892
v -7.291298 0.410437 -13.627775
v -7.295533 0.439552 -13.632010
v -7.309495 0.466588 -13.645972
v -7.346557 0.490166 -13.683034
v -7.447600 0.508764 -13.784078
v -7.554456 0.502410 -13.890933
v -7.663022 0.494886 -13.999499
v -7.769199 0.509977 -14.105677
v -7.837337 0.546578 -14.173814
v -7.871108 0.590350 -14.207585
v -7.900151 0.636860 -14.236629
v -7.954104 0.681675 -14.290582
v -8.023366 0.713864 -14.359843
v -8.093397 0.736970 -14.429874
v -8.167524 0.757743 -14.504001
v -8.249073 0.782933 14.214449
v -6.849073 0.082933 12.814449
v -8.167524 0.757743 14.132899
v -8.093397 0.736970 14.058773
v -8.023366 0.713864 13.988742
v -7.954104 0.681675 13.919480
v -7.900151 0.636860 13.865527
v -7.871108 0.590350 13.836484
v -7.837337 0.546578 13.802712
v -7.769199 0.509977 13.734575
v -7.663022 0.494886 13.628398
v -7.554456 0.502410 13.519832
v -7.447600 0.508764 13.412976
v -7.346557 0.490166 13.311933
v -7.309495 0.466588 13.274871
v -7.295533 0.439552 13.260909
v -7.291298 0.410437 13.256674
v -7.283415 0.380623 13.248791
v -7.258508 0.351487 13.223884
v -7.200342 0.319619 13.165718
v -7.135865 0.297635 13.101241
v -7.069974 0.276161 13.035350
v -7.007564 0.245826 12.972939
v -6.954828 0.205781 12.920204
v -6.918924 0.167307 12.884300
v -6.887717 0.127369 12.853093
v 7.150927 0.082933 -13.185551
v 8.550926 0.782933 -14.585550
v 7.189570 0.127369 -13.224195
v 7.220778 0.167307 -13.255402
v 7.256681 0.205781 -13.291306
v 7.309417 0.245826 -13.344041
v 7.371827 0.276161 -13.406451
v 7.437718 0.297635 -13.472342
v 7.502195 0.319619 -13.536819
v 7.560361 0.351487 -13.594985
v 7.585268 0.380623 -13.619892
v 7.593151 0.410437 -13.627775
v 7.597386 0.439552 -13.632010
v 7.611348 0.466588 -13.645972
v 7.648410 0.490166 -13.683034
v 7.749454 0.508764 -13.784078
v 7.856309 0.502410 -13.890933
v 7.964875 0.494886 -13.999499
v 8.071053 0.509977 -14.105677
v 8.139190 0.546578 -14.173814
v 8.172960 0.590350 -14.207584
v 8.202005 0.636860 -14.236629
v 8.255959 0.681675 -14.290583
v 8.325220 0.713864 -14.359844
v 8.395250 0.736970 -14.429874
v 8.469378 0.757743 -14.504002
v 7.150927 0.082933 12.814449
v 8.550926 0.782933 14.214449
v 7.189570 0.127369 12.853093
v 7.220778 0.167307 12.884300
v 7.256681 0.205781 12.920204
v 7.309417 0.245826 12.972939
v 7.371827 0.276161 13.035350
v 7.437718 0.297635 13.101241
v 7.502195 0.319619 13.165718
v 7.560361 0.351487 13.223884
v 7.585268 0.380623 13.248791
v 7.593151 0.410437 13.256674
v 7.597386 0.439552 13.260909
v 7.611348 0.466588 13.274871
v 7.648410 0.490166 13.311933
v 7.749454 0.508764 13.412976
v 7.856309 0.502410 13.519832
v 7.964875 0.494886 13.628398
v 8.071053 0.509977 13.734575
v 8.139190 0.546578 13.802712
v 8.172960 0.590350 13.836483
v 8.202005 0.636860 13.865528
v 8.255959 0.681675 13.919481
v 8.325220 0.713864 13.988743
v 8.395250 0.736970 14.058773
v 8.469378 0.757743 14.132900
v -6.849073 -0.217067 -13.185551
v -6.849073 -0.217067 12.814449
v 7.150927 -0.217067 -13.185551
v 7.150927 -0.217067 12.814449
v -6.849073 -0.217067 -13.185551
v 7.150927 -0.217067 -13.185551
v -6.113285 -0.217067 -11.819088
v 6.415138 -0.217067 -11.819088
v -6.113285 -0.217067 -11.819088
v 6.415138 -0.217067 -11.819088
v -7.219288 0.022316 12.916275
v 7.255881 0.022316 12.916275
v -7.219288 0.022316 -13.163792
v 7.255881 0.022316 -13.163792
vt 0.875000 0.500000
vt 0.800000 0.500000
vt 0.800000 0.500000
vt 0.875000 0.500000
vt 0.875000 0.500000
vt 0.800000 0.500000
vt 0.800000 0.750000
vt 0.875000 0.750000
vt 0.375000 0.000000
vt 0.625000 0.000000
vt 0.625000 0.250000
vt 0.375000 0.250000
vt 0.125000 0.500000
vt 0.375000 0.500000
vt 0.375000 0.750000
vt 0.125000 0.750000
vt 0.625000 0.250000
vt 0.375000 0.250000
vt 0.625000 0.250000
vt 0.375000 0.250000
vt 0.125000 0.500000
vt 0.375000 0.500000
vt 0.450000 0.500000
vt 0.375000 0.500000
vt 0.450000 0.750000
vt 0.450000 0.500000
vt 0.450000 0.500000
vt 0.125000 0.500000
vt 0.789806 0.750000
vt 0.789806 0.500000
vt 0.780540 0.750000
vt 0.780540 0.500000
vt 0.771787 0.750000
vt 0.771787 0.500000
vt 0.763129 0.750000
vt 0.763129 0.500000
vt 0.756385 0.750000
vt 0.756385 0.500000
vt 0.752754 0.750000
vt 0.752754 0.500000
vt 0.748533 0.750000
vt 0.748533 0.500000
vt 0.740016 0.750000
vt 0.740016 0.500000
vt 0.726744 0.750000
vt 0.726744 0.500000
vt 0.713173 0.750000
vt 0.713173 0.500000
vt 0.699816 0.750000
vt 0.699816 0.500000
vt 0.687185 0.750000
vt 0.687185 0.500000
vt 0.545914 0.756325
vt 0.545914 0.497786
vt 0.539155 0.756133
vt 0.539155 0.497854
vt 0.531876 0.756075
vt 0.531876 0.497874
vt 0.524422 0.755966
vt 0.524422 0.497912
vt 0.517138 0.755624
vt 0.517138 0.498032
vt 0.509171 0.754825
vt 0.509171 0.498311
vt 0.503675 0.753940
vt 0.503675 0.498621
vt 0.498307 0.753034
vt 0.498307 0.498938
vt 0.490723 0.752177
vt 0.490723 0.499238
vt 0.480712 0.751453
vt 0.480712 0.499492
vt 0.471093 0.750960
vt 0.471093 0.499664
vt 0.461109 0.750531
vt 0.461109 0.499814
vt 0.461109 0.500000
vt 0.471093 0.500000
vt 0.480712 0.500000
vt 0.490723 0.500000
vt 0.498307 0.500000
vt 0.503675 0.500000
vt 0.509171 0.500000
vt 0.517138 0.500000
vt 0.524422 0.500000
vt 0.531876 0.500000
vt 0.539155 0.500000
vt 0.545914 0.500000
vt 0.687185 0.500000
vt 0.699816 0.500000
vt 0.713173 0.500000
vt 0.726744 0.500000
vt 0.740016 0.500000
vt 0.748533 0.500000
vt 0.752754 0.500000
vt 0.756385 0.500000
vt 0.763129 0.500000
vt 0.771787 0.500000
vt 0.780540 0.500000
vt 0.789806 0.500000
vt 0.461109 0.499655
vt 0.471093 0.499376
vt 0.480712 0.499056
vt 0.490723 0.498585
vt 0.498307 0.498028
vt 0.503675 0.497439
vt 0.509171 0.496864
vt 0.517138 0.496344
vt 0.524422 0.496122
vt 0.531876 0.496052
vt 0.539155 0.496014
vt 0.545914 0.495889
vt 0.687185 0.500000
vt 0.699816 0.500000
vt 0.713173 0.500000
vt 0.726744 0.500000
vt 0.740016 0.500000
vt 0.748533 0.500000
vt 0.752754 0.500000
vt 0.756385 0.500000
vt 0.763129 0.500000
vt 0.771787 0.500000
vt 0.780540 0.500000
vt 0.789806 0.500000
vt 0.375000 0.750000
vt 0.375000 0.500000
vt 0.375000 0.500000
vt 0.375000 0.500000
vt 0.000000 0.000000
vt 1.000000 0.000000
vt 1.000000 1.000000
vt 0.000000 1.000000
vn 0.0000 1.0000 0.0000
vn -1.0000 0.0000 0.0000
vn 0.0000 -1.0000 0.0000
vn 0.0000 0.0000 -1.0000
vn 1.0000 0.0000 0.0000
vn 0.0000 0.0000 1.0000
vn 0.2951 0.9555 0.0000
vn 0.2698 0.9629 0.0000
vn 0.3133 0.9496 0.0000
vn 0.4215 0.9069 0.0000
vn 0.6390 0.7692 0.0000
vn 0.8482 0.5297 0.0000
vn 0.7917 0.6109 0.0000
vn 0.4732 0.8809 0.0000
vn 0.1407 0.9900 0.0000
vn -0.0691 0.9976 0.0000
vn -0.0594 0.9982 0.0000
vn 0.1810 0.9835 0.0000
vn 0.5368 0.8437 0.0000
vn 0.8885 0.4588 0.0000
vn 0.9896 0.1440 0.0000
vn 0.9668 0.2556 0.0000
vn 0.7601 0.6498 0.0000
vn 0.4805 0.8770 0.0000
vn 0.3227 0.9465 0.0000
vn 0.3099 0.9508 0.0000
vn 0.4371 0.8994 0.0000
vn 0.6048 0.7964 0.0000
vn 0.7311 0.6823 0.0000
vn 0.7880 0.6157 0.0000
vn 0.7546 0.6562 0.0000
vn 0.0000 0.6562 0.7546
vn 0.0000 0.6157 0.7880
vn 0.0000 0.6823 0.7311
vn 0.0000 0.7964 0.6048
vn 0.0000 0.8994 0.4372
vn 0.0000 0.9508 0.3099
vn 0.0000 0.9465 0.3227
vn 0.0000 0.8770 0.4805
vn 0.0000 0.6498 0.7601
vn 0.0000 0.2556 0.9668
vn 0.0000 0.1440 0.9896
vn 0.0000 0.4588 0.8885
vn 0.0000 0.8437 0.5368
vn 0.0000 0.9835 0.1810
vn 0.0000 0.9982 -0.0594
vn 0.0000 0.9976 -0.0691
vn 0.0000 0.9900 0.1407
vn 0.0000 0.8809 0.4732
vn 0.0000 0.6109 0.7917
vn 0.0000 0.5297 0.8482
vn 0.0000 0.7692 0.6390
vn 0.0000 0.9068 0.4215
vn 0.0000 0.9496 0.3133
vn 0.0000 0.9629 0.2698
vn 0.0000 0.9555 0.2951
vn -0.7546 0.6562 0.0000
vn -0.7880 0.6157 0.0000
vn -0.7311 0.6823 0.0000
vn -0.6048 0.7964 0.0000
vn -0.4371 0.8994 0.0000
vn -0.3099 0.9508 0.0000
vn -0.3227 0.9465 0.0000
vn -0.4805 0.8770 0.0000
vn -0.7601 0.6498 0.0000
vn -0.9668 0.2556 0.0000
vn -0.9896 0.1440 0.0000
vn -0.8885 0.4588 0.0000
vn -0.5368 0.8437 0.0000
vn -0.1810 0.9835 0.0000
vn 0.0594 0.9982 0.0000
vn 0.0691 0.9976 0.0000
vn -0.1407 0.9900 0.0000
vn -0.4732 0.8809 0.0000
vn -0.7918 0.6108 0.0000
vn -0.8482 0.5297 0.0000
vn -0.6390 0.7692 0.0000
vn -0.4215 0.9068 0.0000
vn -0.3133 0.9496 0.0000
vn -0.2698 0.9629 0.0000
vn -0.2951 0.9555 0.0000
vn 0.0000 0.6562 -0.7546
vn 0.0000 0.6157 -0.7880
vn 0.0000 0.6823 -0.7311
vn 0.0000 0.7964 -0.6048
vn 0.0000 0.8994 -0.4372
vn 0.0000 0.9508 -0.3099
vn 0.0000 0.9465 -0.3227
vn 0.0000 0.8770 -0.4805
vn 0.0000 0.6498 -0.7601
vn 0.0000 0.2556 -0.9668
vn 0.0000 0.1440 -0.9896
vn 0.0000 0.4588 -0.8885
vn 0.0000 0.8437 -0.5368
vn 0.0000 0.9835 -0.1810
vn 0.0000 0.9982 0.0594
vn 0.0000 0.9976 0.0691
vn 0.0000 0.9900 -0.1407
vn 0.0000 0.8809 -0.4732
vn -0.0000 0.6109 -0.7917
vn 0.0000 0.5297 -0.8482
vn 0.0000 0.7692 -0.6390
vn 0.0000 0.9068 -0.4215
vn 0.0000 0.9496 -0.3133
vn 0.0000 0.9629 -0.2698
vn 0.0000 0.9555 -0.2951
usemtl Material
s off
f 3/1/1 14/2/1 66/3/1 8/4/1
f 11/5/1 92/6/1 39/7/1 5/8/1
f 6/9/2 5/10/2 3/11/2 4/12/2
f 4/13/3 1/14/3 2/15/3 6/16/3
f 14/2/1 3/1/1 5/8/1 39/7/1
f 4/12/4 3/11/4 8/17/4 9/18/4
f 9/18/5 8/17/5 11/19/5 12/20/5
f 1/14/3 4/13/3 9/21/3 7/22/3
f 91/23/4 10/24/4 2/15/4 40/25/4
f 1/14/5 13/26/5 40/25/5 2/15/5
f 65/27/2 7/22/2 10/24/2 91/23/2
f 7/22/3 9/21/3 12/28/3 10/24/3
f 8/4/1 66/3/1 92/6/1 11/5/1
f 10/24/3 12/28/3 6/16/3 2/15/3
f 12/20/6 11/19/6 5/10/6 6/9/6
f 14/2/7 39/7/7 41/29/7 38/30/7
f 38/30/8 41/29/8 42/31/8 37/32/8
f 37/32/9 42/31/9 43/33/9 36/34/9
f 36/34/10 43/33/10 44/35/10 35/36/10
f 35/36/11 44/35/11 45/37/11 34/38/11
f 34/38/12 45/37/12 46/39/12 33/40/12
f 33/40/13 46/39/13 47/41/13 32/42/13
f 32/42/14 47/41/14 48/43/14 31/44/14
f 31/44/15 48/43/15 49/45/15 30/46/15
f 30/46/16 49/45/16 50/47/16 29/48/16
f 29/48/17 50/47/17 51/49/17 28/50/17
f 28/50/18 51/49/18 52/51/18 27/52/18
f 27/52/19 52/51/19 53/53/19 26/54/19
f 26/54/20 53/53/20 54/55/20 25/56/20
f 25/56/21 54/55/21 55/57/21 24/58/21
f 24/58/22 55/57/22 56/59/22 23/60/22
f 23/60/23 56/59/23 57/61/23 22/62/23
f 22/62/24 57/61/24 58/63/24 21/64/24
f 21/64/25 58/63/25 59/65/25 20/66/25
f 20/66/26 59/65/26 60/67/26 19/68/26
f 19/68/27 60/67/27 61/69/27 18/70/27
f 18/70/28 61/69/28 62/71/28 17/72/28
f 17/72/29 62/71/29 63/73/29 16/74/29
f 16/74/30 63/73/30 64/75/30 15/76/30
f 15/76/31 64/75/31 40/25/31 13/26/31
f 13/26/32 65/27/32 67/77/32 15/76/32
f 15/76/33 67/77/33 68/78/33 16/74/33
f 16/74/34 68/78/34 69/79/34 17/72/34
f 17/72/35 69/79/35 70/80/35 18/70/35
f 18/70/36 70/80/36 71/81/36 19/68/36
f 19/68/37 71/81/37 72/82/37 20/66/37
f 20/66/38 72/82/38 73/83/38 21/64/38
f 21/64/39 73/83/39 74/84/39 22/62/39
f 22/62/40 74/84/40 75/85/40 23/60/40
f 23/60/41 75/85/41 76/86/41 24/58/41
f 24/58/42 76/86/42 77/87/42 25/56/42
f 25/56/43 77/87/43 78/88/43 26/54/43
f 26/54/44 78/88/44 79/89/44 27/52/44
f 27/52/45 79/89/45 80/90/45 28/50/45
f 28/50/46 80/90/46 81/91/46 29/48/46
f 29/48/47 81/91/47 82/92/47 30/46/47
f 30/46/48 82/92/48 83/93/48 31/44/48
f 31/44/49 83/93/49 84/94/49 32/42/49
f 32/42/50 84/94/50 85/95/50 33/40/50
f 33/40/51 85/95/51 86/96/51 34/38/51
f 34/38/52 86/96/52 87/97/52 35/36/52
f 35/36/53 87/97/53 88/98/53 36/34/53
f 36/34/54 88/98/54 89/99/54 37/32/54
f 37/32/55 89/99/55 90/100/55 38/30/55
f 38/30/56 90/100/56 66/3/56 14/2/56
f 65/27/57 91/23/57 93/101/57 67/77/57
f 67/77/58 93/101/58 94/102/58 68/78/58
f 68/78/59 94/102/59 95/103/59 69/79/59
f 69/79/60 95/103/60 96/104/60 70/80/60
f 70/80/61 96/104/61 97/105/61 71/81/61
f 71/81/62 97/105/62 98/106/62 72/82/62
f 72/82/63 98/106/63 99/107/63 73/83/63
f 73/83/64 99/107/64 100/108/64 74/84/64
f 74/84/65 100/108/65 101/109/65 75/85/65
f 75/85/66 101/109/66 102/110/66 76/86/66
f 76/86/67 102/110/67 103/111/67 77/87/67
f 77/87/68 103/111/68 104/112/68 78/88/68
f 78/88/69 104/112/69 105/113/69 79/89/69
f 79/89/70 105/113/70 106/114/70 80/90/70
f 80/90/71 106/114/71 107/115/71 81/91/71
f 81/91/72 107/115/72 108/116/72 82/92/72
f 82/92/73 108/116/73 109/117/73 83/93/73
f 83/93/74 109/117/74 110/118/74 84/94/74
f 84/94/75 110/118/75 111/119/75 85/95/75
f 85/95/76 111/119/76 112/120/76 86/96/76
f 86/96/77 112/120/77 113/121/77 87/97/77
f 87/97/78 113/121/78 114/122/78 88/98/78
f 88/98/79 114/122/79 115/123/79 89/99/79
f 89/99/80 115/123/80 116/124/80 90/100/80
f 90/100/81 116/124/81 92/6/81 66/3/81
f 91/23/82 40/25/82 64/75/82 93/101/82
f 93/101/83 64/75/83 63/73/83 94/102/83
f 94/102/84 63/73/84 62/71/84 95/103/84
f 95/103/85 62/71/85 61/69/85 96/104/85
f 96/104/86 61/69/86 60/67/86 97/105/86
f 97/105/87 60/67/87 59/65/87 98/106/87
f 98/106/88 59/65/88 58/63/88 99/107/88
f 99/107/89 58/63/89 57/61/89 100/108/89
f 100/108/90 57/61/90 56/59/90 101/109/90
f 101/109/91 56/59/91 55/57/91 102/110/91
f 102/110/92 55/57/92 54/55/92 103/111/92
f 103/111/93 54/55/93 53/53/93 104/112/93
f 104/112/94 53/53/94 52/51/94 105/113/94
f 105/113/95 52/51/95 51/49/95 106/114/95
f 106/114/96 51/49/96 50/47/96 107/115/96
f 107/115/97 50/47/97 49/45/97 108/116/97
f 108/116/98 49/45/98 48/43/98 109/117/98
f 109/117/99 48/43/99 47/41/99 110/118/99
f 110/118/100 47/41/100 46/39/100 111/119/100
f 111/119/101 46/39/101 45/37/101 112/120/101
f 112/120/102 45/37/102 44/35/102 113/121/102
f 113/121/103 44/35/103 43/33/103 114/122/103
f 114/122/104 43/33/104 42/31/104 115/123/104
f 115/123/105 42/31/105 41/29/105 116/124/105
f 116/124/106 41/29/106 39/7/106 92/6/106
f 13/26/6 1/14/6 7/22/6 65/27/6
f 1/14/6 2/15/6 118/125/6 117/126/6
f 7/22/6 1/14/6 117/126/6 119/127/6
f 10/24/6 2/15/6 118/125/6 120/128/6
f 7/22/6 10/24/6 120/128/6 119/127/6
usemtl Image
f 127/129/1 128/130/1 130/131/1 129/132/1
l 122 119
l 121 117
