{
    "asset" : {
        "generator" : "Khronos glTF Blender I/O v3.3.32",
        "version" : "2.0"
    },
    "scene" : 0,
    "scenes" : [
        {
            "name" : "Scene",
            "nodes" : [
                0,
                1,
                2
            ]
        }
    ],
    "nodes" : [
        {
            "mesh" : 0,
            "name" : "Cylinder.002",
            "scale" : [
                0.13201338052749634,
                0.13201338052749634,
                0.13201338052749634
            ],
            "translation" : [
                0.1509978026151657,
                1.61042058467865,
                -0.680778443813324
            ]
        },
        {
            "mesh" : 1,
            "name" : "Cylinder.001",
            "scale" : [
                0.21930186450481415,
                0.03358078747987747,
                0.21930186450481415
            ],
            "translation" : [
                0.14795000851154327,
                0.055422067642211914,
                -0.6807785630226135
            ]
        },
        {
            "mesh" : 2,
            "name" : "Cylinder",
            "scale" : [
                0.13201338052749634,
                0.13201338052749634,
                0.13201338052749634
            ],
            "translation" : [
                0.1509978026151657,
                1.61042058467865,
                -0.680778443813324
            ]
        }
    ],
    "materials" : [
        {
            "doubleSided" : true,
            "name" : "Material.008",
            "pbrMetallicRoughness" : {
                "baseColorFactor" : [
                    0.24352818727493286,
                    0.24347379803657532,
                    0.05818846821784973,
                    1
                ],
                "metallicFactor" : 0,
                "roughnessFactor" : 0.5
            }
        },
        {
            "doubleSided" : true,
            "name" : "Material.007",
            "pbrMetallicRoughness" : {
                "baseColorFactor" : [
                    0.006240129470825195,
                    0.008812826126813889,
                    0.057802263647317886,
                    1
                ],
                "metallicFactor" : 0,
                "roughnessFactor" : 0.5
            }
        }
    ],
    "meshes" : [
        {
            "name" : "Cylinder.012",
            "primitives" : [
                {
                    "attributes" : {
                        "POSITION" : 0,
                        "NORMAL" : 1
                    },
                    "indices" : 2,
                    "material" : 0
                }
            ]
        },
        {
            "name" : "Cylinder.008",
            "primitives" : [
                {
                    "attributes" : {
                        "POSITION" : 3,
                        "NORMAL" : 4
                    },
                    "indices" : 5,
                    "material" : 0
                }
            ]
        },
        {
            "name" : "Cylinder.011",
            "primitives" : [
                {
                    "attributes" : {
                        "POSITION" : 6,
                        "NORMAL" : 7
                    },
                    "indices" : 8,
                    "material" : 1
                }
            ]
        }
    ],
    "accessors" : [
        {
            "bufferView" : 0,
            "componentType" : 5126,
            "count" : 257,
            "max" : [
                0.22987733781337738,
                1.2214219570159912,
                0.22388097643852234
            ],
            "min" : [
                -0.2178826928138733,
                0.9975419044494629,
                -0.2238791137933731
            ],
            "type" : "VEC3"
        },
        {
            "bufferView" : 1,
            "componentType" : 5126,
            "count" : 257,
            "type" : "VEC3"
        },
        {
            "bufferView" : 2,
            "componentType" : 5123,
            "count" : 1440,
            "type" : "SCALAR"
        },
        {
            "bufferView" : 3,
            "componentType" : 5126,
            "count" : 8522,
            "max" : [
                1.0893948078155518,
                50.82387924194336,
                1.0861027240753174
            ],
            "min" : [
                -1.0893946886062622,
                -0.16747598350048065,
                -1.090492606163025
            ],
            "type" : "VEC3"
        },
        {
            "bufferView" : 4,
            "componentType" : 5126,
            "count" : 8522,
            "type" : "VEC3"
        },
        {
            "bufferView" : 5,
            "componentType" : 5123,
            "count" : 50988,
            "type" : "SCALAR"
        },
        {
            "bufferView" : 6,
            "componentType" : 5126,
            "count" : 904,
            "max" : [
                3.737628698348999,
                1,
                3.7526841163635254
            ],
            "min" : [
                -3.767740488052368,
                -3.680274248123169,
                -3.752685070037842
            ],
            "type" : "VEC3"
        },
        {
            "bufferView" : 7,
            "componentType" : 5126,
            "count" : 904,
            "type" : "VEC3"
        },
        {
            "bufferView" : 8,
            "componentType" : 5123,
            "count" : 4737,
            "type" : "SCALAR"
        }
    ],
    "bufferViews" : [
        {
            "buffer" : 0,
            "byteLength" : 3084,
            "byteOffset" : 0,
            "target" : 34962
        },
        {
            "buffer" : 0,
            "byteLength" : 3084,
            "byteOffset" : 3084,
            "target" : 34962
        },
        {
            "buffer" : 0,
            "byteLength" : 2880,
            "byteOffset" : 6168,
            "target" : 34963
        },
        {
            "buffer" : 0,
            "byteLength" : 102264,
            "byteOffset" : 9048,
            "target" : 34962
        },
        {
            "buffer" : 0,
            "byteLength" : 102264,
            "byteOffset" : 111312,
            "target" : 34962
        },
        {
            "buffer" : 0,
            "byteLength" : 101976,
            "byteOffset" : 213576,
            "target" : 34963
        },
        {
            "buffer" : 0,
            "byteLength" : 10848,
            "byteOffset" : 315552,
            "target" : 34962
        },
        {
            "buffer" : 0,
            "byteLength" : 10848,
            "byteOffset" : 326400,
            "target" : 34962
        },
        {
            "buffer" : 0,
            "byteLength" : 9474,
            "byteOffset" : 337248,
            "target" : 34963
        }
    ],
    "buffers" : [
        {
            "byteLength" : 346724,
            "uri" : "data:application/octet-stream;base64,"
        }
    ]
}
