{
    "asset" : {
        "generator" : "Khronos glTF Blender I/O v3.3.32",
        "version" : "2.0"
    },
    "extensionsUsed" : [
        "KHR_materials_specular",
        "KHR_materials_ior"
    ],
    "scene" : 0,
    "scenes" : [
        {
            "name" : "Scene",
            "nodes" : [
                0,
                1,
                2
            ]
        }
    ],
    "nodes" : [
        {
            "mesh" : 0,
            "name" : "0_0_0_object_43.005",
            "rotation" : [
                0,
                0.7071068286895752,
                0,
                0.7071067094802856
            ],
            "scale" : [
                0.002895377343520522,
                0.0010993237374350429,
                0.0012016199762001634
            ],
            "translation" : [
                0.4072270691394806,
                3.2799999713897705,
                2.7658228874206543
            ]
        },
        {
            "mesh" : 1,
            "name" : "chiaro-magdalina-389011306",
            "rotation" : [
                0.7071068286895752,
                0,
                0,
                0.7071067094802856
            ],
            "scale" : [
                0.0012938781874254346,
                0.0012938781874254346,
                0.0012938781874254346
            ],
            "translation" : [
                0.10839289426803589,
                2.0348258018493652,
                -1.419800043106079
            ]
        },
        {
            "mesh" : 2,
            "name" : "chiaro-magdalina-389011306.001",
            "rotation" : [
                0.7071068286895752,
                0,
                0,
                0.7071067094802856
            ],
            "scale" : [
                0.0012938781874254346,
                0.0012938781874254346,
                0.0012938781874254346
            ],
            "translation" : [
                0.10104535520076752,
                2.0348258018493652,
                1.4041800498962402
            ]
        }
    ],
    "materials" : [
        {
            "doubleSided" : true,
            "name" : "Material.001",
            "pbrMetallicRoughness" : {
                "baseColorFactor" : [
                    0.9742870330810547,
                    0.9742856621742249,
                    1,
                    1
                ],
                "metallicFactor" : 0,
                "roughnessFactor" : 0.5
            }
        },
        {
            "doubleSided" : true,
            "extensions" : {
                "KHR_materials_specular" : {
                    "specularColorFactor" : [
                        0,
                        0,
                        0
                    ]
                },
                "KHR_materials_ior" : {
                    "ior" : 1.4500000476837158
                }
            },
            "name" : "wire_000000000",
            "pbrMetallicRoughness" : {
                "baseColorFactor" : [
                    0.8000000715255737,
                    0.5777789354324341,
                    0.1665000170469284,
                    1
                ],
                "metallicFactor" : 0
            }
        },
        {
            "doubleSided" : true,
            "extensions" : {
                "KHR_materials_specular" : {
                    "specularColorFactor" : [
                        0,
                        0,
                        0
                    ]
                },
                "KHR_materials_ior" : {
                    "ior" : 1.4500000476837158
                }
            },
            "name" : "wire_229154215",
            "pbrMetallicRoughness" : {
                "baseColorFactor" : [
                    0.8000000715255737,
                    0.5138669013977051,
                    0.07217545062303543,
                    1
                ],
                "metallicFactor" : 0
            }
        }
    ],
    "meshes" : [
        {
            "name" : "0_0_0_object_43.032",
            "primitives" : [
                {
                    "attributes" : {
                        "POSITION" : 0,
                        "NORMAL" : 1,
                        "TEXCOORD_0" : 2,
                        "TEXCOORD_1" : 3
                    },
                    "indices" : 4,
                    "material" : 0
                }
            ]
        },
        {
            "name" : "chiaro-magdalina-389011306",
            "primitives" : [
                {
                    "attributes" : {
                        "POSITION" : 5,
                        "NORMAL" : 6,
                        "TEXCOORD_0" : 7
                    },
                    "indices" : 8,
                    "material" : 1
                },
                {
                    "attributes" : {
                        "POSITION" : 9,
                        "NORMAL" : 10,
                        "TEXCOORD_0" : 11
                    },
                    "indices" : 12,
                    "material" : 2
                }
            ]
        },
        {
            "name" : "chiaro-magdalina-389011306.001",
            "primitives" : [
                {
                    "attributes" : {
                        "POSITION" : 13,
                        "NORMAL" : 14,
                        "TEXCOORD_0" : 15
                    },
                    "indices" : 16,
                    "material" : 1
                },
                {
                    "attributes" : {
                        "POSITION" : 17,
                        "NORMAL" : 18,
                        "TEXCOORD_0" : 19
                    },
                    "indices" : 20,
                    "material" : 2
                }
            ]
        }
    ],
    "accessors" : [
        {
            "bufferView" : 0,
            "componentType" : 5126,
            "count" : 19757,
            "max" : [
                3027.29296875,
                11.61151123046875,
                2163.74560546875
            ],
            "min" : [
                -1117.2452392578125,
                -254.57716369628906,
                -2829.51611328125
            ],
            "type" : "VEC3"
        },
        {
            "bufferView" : 1,
            "componentType" : 5126,
            "count" : 19757,
            "type" : "VEC3"
        },
        {
            "bufferView" : 2,
            "componentType" : 5126,
            "count" : 19757,
            "type" : "VEC2"
        },
        {
            "bufferView" : 3,
            "componentType" : 5126,
            "count" : 19757,
            "type" : "VEC2"
        },
        {
            "bufferView" : 4,
            "componentType" : 5123,
            "count" : 41739,
            "type" : "SCALAR"
        },
        {
            "bufferView" : 5,
            "componentType" : 5126,
            "count" : 887,
            "max" : [
                265.8636474609375,
                292.2502136230469,
                -44.12601089477539
            ],
            "min" : [
                -403.93463134765625,
                -292.5783386230469,
                -952.6982421875
            ],
            "type" : "VEC3"
        },
        {
            "bufferView" : 6,
            "componentType" : 5126,
            "count" : 887,
            "type" : "VEC3"
        },
        {
            "bufferView" : 7,
            "componentType" : 5126,
            "count" : 887,
            "type" : "VEC2"
        },
        {
            "bufferView" : 8,
            "componentType" : 5123,
            "count" : 3936,
            "type" : "SCALAR"
        },
        {
            "bufferView" : 9,
            "componentType" : 5126,
            "count" : 1265,
            "max" : [
                270.0199890136719,
                341.0653381347656,
                -38.79753112792969
            ],
            "min" : [
                -402.9808044433594,
                -337.0856018066406,
                -341.9943542480469
            ],
            "type" : "VEC3"
        },
        {
            "bufferView" : 10,
            "componentType" : 5126,
            "count" : 1265,
            "type" : "VEC3"
        },
        {
            "bufferView" : 11,
            "componentType" : 5126,
            "count" : 1265,
            "type" : "VEC2"
        },
        {
            "bufferView" : 12,
            "componentType" : 5123,
            "count" : 5376,
            "type" : "SCALAR"
        },
        {
            "bufferView" : 13,
            "componentType" : 5126,
            "count" : 877,
            "max" : [
                265.3533630371094,
                292.2502136230469,
                -44.12601089477539
            ],
            "min" : [
                -404.03900146484375,
                -291.26141357421875,
                -952.6982421875
            ],
            "type" : "VEC3"
        },
        {
            "bufferView" : 14,
            "componentType" : 5126,
            "count" : 877,
            "type" : "VEC3"
        },
        {
            "bufferView" : 15,
            "componentType" : 5126,
            "count" : 877,
            "type" : "VEC2"
        },
        {
            "bufferView" : 16,
            "componentType" : 5123,
            "count" : 3795,
            "type" : "SCALAR"
        },
        {
            "bufferView" : 17,
            "componentType" : 5126,
            "count" : 1334,
            "max" : [
                268.3185729980469,
                340.0937805175781,
                -38.94004821777344
            ],
            "min" : [
                -401.9645690917969,
                -336.6443786621094,
                -323.8631896972656
            ],
            "type" : "VEC3"
        },
        {
            "bufferView" : 18,
            "componentType" : 5126,
            "count" : 1334,
            "type" : "VEC3"
        },
        {
            "bufferView" : 19,
            "componentType" : 5126,
            "count" : 1334,
            "type" : "VEC2"
        },
        {
            "bufferView" : 20,
            "componentType" : 5123,
            "count" : 5595,
            "type" : "SCALAR"
        }
    ],
    "bufferViews" : [
        {
            "buffer" : 0,
            "byteLength" : 237084,
            "byteOffset" : 0,
            "target" : 34962
        },
        {
            "buffer" : 0,
            "byteLength" : 237084,
            "byteOffset" : 237084,
            "target" : 34962
        },
        {
            "buffer" : 0,
            "byteLength" : 158056,
            "byteOffset" : 474168,
            "target" : 34962
        },
        {
            "buffer" : 0,
            "byteLength" : 158056,
            "byteOffset" : 632224,
            "target" : 34962
        },
        {
            "buffer" : 0,
            "byteLength" : 83478,
            "byteOffset" : 790280,
            "target" : 34963
        },
        {
            "buffer" : 0,
            "byteLength" : 10644,
            "byteOffset" : 873760,
            "target" : 34962
        },
        {
            "buffer" : 0,
            "byteLength" : 10644,
            "byteOffset" : 884404,
            "target" : 34962
        },
        {
            "buffer" : 0,
            "byteLength" : 7096,
            "byteOffset" : 895048,
            "target" : 34962
        },
        {
            "buffer" : 0,
            "byteLength" : 7872,
            "byteOffset" : 902144,
            "target" : 34963
        },
        {
            "buffer" : 0,
            "byteLength" : 15180,
            "byteOffset" : 910016,
            "target" : 34962
        },
        {
            "buffer" : 0,
            "byteLength" : 15180,
            "byteOffset" : 925196,
            "target" : 34962
        },
        {
            "buffer" : 0,
            "byteLength" : 10120,
            "byteOffset" : 940376,
            "target" : 34962
        },
        {
            "buffer" : 0,
            "byteLength" : 10752,
            "byteOffset" : 950496,
            "target" : 34963
        },
        {
            "buffer" : 0,
            "byteLength" : 10524,
            "byteOffset" : 961248,
            "target" : 34962
        },
        {
            "buffer" : 0,
            "byteLength" : 10524,
            "byteOffset" : 971772,
            "target" : 34962
        },
        {
            "buffer" : 0,
            "byteLength" : 7016,
            "byteOffset" : 982296,
            "target" : 34962
        },
        {
            "buffer" : 0,
            "byteLength" : 7590,
            "byteOffset" : 989312,
            "target" : 34963
        },
        {
            "buffer" : 0,
            "byteLength" : 16008,
            "byteOffset" : 996904,
            "target" : 34962
        },
        {
            "buffer" : 0,
            "byteLength" : 16008,
            "byteOffset" : 1012912,
            "target" : 34962
        },
        {
            "buffer" : 0,
            "byteLength" : 10672,
            "byteOffset" : 1028920,
            "target" : 34962
        },
        {
            "buffer" : 0,
            "byteLength" : 11190,
            "byteOffset" : 1039592,
            "target" : 34963
        }
    ],
    "buffers" : [
        {
            "byteLength" : 1050784,
            "uri" : "data:application/octet-stream;base64,"
        }
    ]
}
